<svg width="288" height="288" xmlns="http://www.w3.org/2000/svg" xmlns:xlink="http://www.w3.org/1999/xlink">
    <defs>
        <linearGradient id="bg-gradient" gradientTransform="rotate(-12deg)">
            <stop offset="0%" stop-color="hsl(180,60%,50%)" />
            <stop offset="100%" stop-color="hsl(220,60%,50%)" />
        </linearGradient>
    </defs>
    <path transform="scale(-1,1) translate(-288 0) rotate(180 144 144)" d="M 21.4271 127.7536 
    C 22.5726 159.8589 25.3192 187.7457 32.1039 213.3327 
    C 34.7640 223.3644 35.1348 236.2061 40.1587 243.9873 
    C 45.5231 252.2962 56.0196 251.7364 64.7150 256.3815 
    C 76.8485 262.8632 84.6243 273.5533 99.7148 276.9750
    C 115.7101 280.6018 136.7293 274.4743 154.6979 276.5132
    C 162.6188 276.4100 170.5421 276.3068 178.4631 276.2036 
    C 210.4425 279.9938 235.8083 276.7259 247.9154 254.9256 
    C 257.4820 237.6997 257.4220 212.3410 260.6789 189.2396 
    C 263.3372 170.3849 263.0369 149.5227 262.0495 126.6915 
    C 261.5429 114.9761 261.3970 103.0585 258.2373 94.1704 
    C 252.0956 76.8945 239.5235 65.9639 228.8573 53.6252 
    C 221.8256 45.4910 213.9479 35.5390 203.3949 31.4164
    C 178.1800 21.5661 149.7129 38.8520 128.7317 43.3067 
    C 116.0324 46.0030 104.0103 36.5000 91.8018 44.6679 
    C 82.1075 51.1537 79.9663 64.5477 69.6396 70.8649 
    C 65.2836 73.5297 59.9375 73.8041 53.9730 75.1494 
    C 42.5073 77.7357 33.7035 80.2515 28.3618 88.2772 
    C 24.1600 94.5904 22.5742 102.1408 21.4388 111.4099 
    C 21.4349 116.8572 21.4310 122.3062 21.4271 127.7536 
    " stroke="transparent" fill="url('#bg-gradient')"/>
</svg>
