<svg width="288" height="288" xmlns="http://www.w3.org/2000/svg" xmlns:xlink="http://www.w3.org/1999/xlink">
    <defs>
        <linearGradient id="bg-gradient" gradientTransform="rotate(-12deg)">
            <stop offset="0%" stop-color="hsl(180,60%,50%)" />
            <stop offset="100%" stop-color="hsl(200,60%,50%)" />
        </linearGradient>
        <style>
            g.part { display: none; }
            g.part:target { display: inline; }
        </style> 
    </defs>
    <g class="part" id="bg">
    <path transform="scale(-1,1) translate(-288 0) rotate(180 144 144)" d="M 21.4271 127.7536 
    C 22.5726 159.8589 25.3192 187.7457 32.1039 213.3327 
    C 34.7640 223.3644 35.1348 236.2061 40.1587 243.9873 
    C 45.5231 252.2962 56.0196 251.7364 64.7150 256.3815 
    C 76.8485 262.8632 84.6243 273.5533 99.7148 276.9750
    C 115.7101 280.6018 136.7293 274.4743 154.6979 276.5132
    C 162.6188 276.4100 170.5421 276.3068 178.4631 276.2036 
    C 210.4425 279.9938 235.8083 276.7259 247.9154 254.9256 
    C 257.4820 237.6997 257.4220 212.3410 260.6789 189.2396 
    C 263.3372 170.3849 263.0369 149.5227 262.0495 126.6915 
    C 261.5429 114.9761 261.3970 103.0585 258.2373 94.1704 
    C 252.0956 76.8945 239.5235 65.9639 228.8573 53.6252 
    C 221.8256 45.4910 213.9479 35.5390 203.3949 31.4164
    C 178.1800 21.5661 149.7129 38.8520 128.7317 43.3067 
    C 116.0324 46.0030 104.0103 36.5000 91.8018 44.6679 
    C 82.1075 51.1537 79.9663 64.5477 69.6396 70.8649 
    C 65.2836 73.5297 59.9375 73.8041 53.9730 75.1494 
    C 42.5073 77.7357 33.7035 80.2515 28.3618 88.2772 
    C 24.1600 94.5904 22.5742 102.1408 21.4388 111.4099 
    C 21.4349 116.8572 21.4310 122.3062 21.4271 127.7536 
    " stroke="transparent" fill="url('#bg-gradient')"/>
    </g>
    <g class="part" id="head">
    <mask id="faceMask">
    <g transform="scale(-1,1) translate(-288 0) rotate(180 144 144)">
        <path d="M144.0513 274.2905 
        C 185.5723 274.9267 240.4289 266.8008 247.2709 234.6971 
        C 249.3363 225.0060 246.1251 212.9068 242.5505 207.0446 
        C 241.1608 204.7654 236.8227 201.2127 236.8860 198.8745 
        C 237.9480 159.6494 233.7396 116.7866 224.2983 87.0074 
        C 220.4396 74.8366 215.3313 60.8348 206.3607 53.6987 
        C 171.7071 26.1317 120.2287 42.9369 98.7353 69.7246 
        C 94.6743 74.7860 88.7345 79.3353 86.1475 85.7505 
        C 86.0427 85.7505 85.9377 85.7505 85.8328 85.7505 
        C 87.3472 75.1285 91.1705 33.1176 83.0006 28.8742 
        C 82.3713 28.7695 81.7418 28.6647 81.1124 28.5600 
        C 80.2733 29.1884 79.4340 29.8170 78.5949 30.4454 
        C 79.5389 36.4152 80.4831 42.3869 81.4271 48.3567 
        C 83.6766 63.1783 79.5538 87.9523 77.0214 100.2052 
        C 71.7797 99.8116 66.1700 97.5566 60.3426 98.9483 
        C 50.0917 101.3964 41.9947 115.8123 44.6079 130.6859 
        C 45.1919 134.0099 48.1346 138.0251 48.0695 140.7413 
        C 45.3425 147.6538 42.6146 154.5683 39.8875 161.4807 
        C 33.5718 177.7726 31.8093 202.9416 38.9434 219.6139 
        C 50.3300 246.2241 78.4702 261.9533 108.8055 269.5770 
        C 116.4623 270.8338 124.1214 272.0910 131.7782 273.3478 
        C 135.8688 273.6620 139.9606 273.9763 144.0513 274.2905 
        " stroke="transparent" fill="white"/>
        <path d="M192.1995 245.6953 
        C 184.4169 239.1503 172.5223 237.6023 160.1007 235.6398 
        C 150.0062 234.0450 134.7797 240.1396 129.8900 235.3256 
        C 129.9949 234.5925 130.0998 233.8591 130.2047 233.1260 
        C 130.8340 232.4976 131.4636 231.8690 132.0929 231.2406 
        C 135.7639 230.7169 139.4361 230.1931 143.1072 229.6694 
        C 162.8185 226.6420 187.0898 231.4510 196.6052 241.2960 
        C 196.5003 242.0292 196.3954 242.7625 196.2905 243.4957 
        C 195.6612 244.2288 195.0317 244.9622 194.4023 245.6953 
        C 193.6681 245.6953 192.9337 245.6953 192.1995 245.6953 
        " stroke="transparent" fill="black"/>
        <path d="M216.1162 228.7267 
        C 203.1364 216.3377 180.0452 202.3186 151.6039 207.0446 
        C 146.7791 207.5683 141.9528 208.0921 137.1280 208.6158 
        C 135.6464 208.0393 134.9782 207.8254 134.2957 206.4161 
        C 134.1909 205.7877 134.0859 205.1591 133.9810 204.5307 
        C 134.4914 203.5243 134.5630 203.2145 135.5545 202.6453 
        C 138.9387 200.0139 158.0660 199.4578 164.1917 200.4457 
        C 168.9116 200.8646 173.6330 201.2837 178.3529 201.7026 
        C 196.8460 205.7481 209.7509 212.7700 220.5219 224.3274 
        C 220.4171 225.0606 220.3121 225.7939 220.2072 226.5271 
        C 219.5779 227.2602 218.9484 227.9936 218.3191 228.7267 
        C 217.5849 228.7267 216.8504 228.7267 216.1162 228.7267 
        " stroke="transparent" fill="black"/>
        <path d="M78.2802 218.6712 
        C 67.5416 212.2128 60.4279 208.9893 57.8251 194.1610 
        C 57.0672 189.8435 57.7440 184.7436 59.3985 181.9059 
        C 60.3425 181.6964 61.2868 181.4869 62.2308 181.2774 
        C 63.2387 181.7871 63.5489 181.8585 64.1189 182.8486 
        C 65.8460 185.3735 63.3733 190.4047 64.1189 194.4752 
        C 65.0629 197.0936 66.0072 199.7127 66.9512 202.3311 
        C 70.2710 207.7387 79.8854 210.0926 82.0565 214.2720 
        C 82.8542 216.6404 81.4645 217.5204 80.1683 218.6712 
        C 79.5390 218.6712 78.9095 218.6712 78.2802 218.6712 
        " stroke="transparent" fill="black"/>
        <path d="M94.9590 193.5325 
        C 84.2897 185.5187 72.9654 174.3793 79.8537 154.2534 
        C 81.2547 153.5594 82.1032 153.2754 83.9447 153.6249 
        C 84.5740 154.5675 85.2035 155.5104 85.8328 156.4530 
        C 82.7443 166.4430 86.2159 179.2888 91.8120 183.7913 
        C 94.2480 185.7512 97.1601 186.9723 99.3647 189.1333 
        C 99.2598 189.8664 99.1549 190.5998 99.0500 191.3329 
        C 98.4207 192.0661 97.7912 192.7994 97.1618 193.5325 
        C 96.4276 193.5325 95.6932 193.5325 94.9590 193.5325 
        " stroke="transparent" fill="black"/>
        <path d="M229.3334 192.2756
        C 216.2040 176.3654 175.8288 175.0711 150.3451 170.9077 
        C 140.9986 169.3808 130.3988 171.7741 122.0227 169.6508 
        C 107.0259 165.8492 104.6804 153.1918 95.2737 144.1979 
        C 95.3786 143.9884 95.4835 143.7789 95.5884 143.5694 
        C 108.2261 143.4821 119.0052 138.6587 130.2047 136.6563 
        C 131.6721 147.0397 142.5744 158.5903 156.6390 155.8245 
        C 159.5706 155.2481 166.7726 151.8231 167.6533 152.3680 
        C 171.0879 155.6623 172.6937 156.9964 178.9823 156.1388 
        C 183.1211 180.0360 230.8524 175.7271 225.5570 146.7118 
        C 222.3154 128.9492 201.1927 119.9401 185.5909 132.2570 
        C 183.1910 134.1516 180.5242 137.7785 179.2970 140.7413 
        C 178.3601 143.0034 178.5991 148.0826 176.7795 149.5399 
        C 175.6351 150.3981 174.7760 150.0993 173.6325 149.5399 
        C 173.3178 148.5973 173.0031 147.6544 172.6884 146.7118 
        C 187.5046 134.2837 170.5825 106.7998 150.9745 110.2607 
        C 142.4745 111.7610 135.9065 116.0391 132.4076 122.5158 
        C 131.4636 124.9247 130.5193 127.3343 129.5753 129.7432 
        C 122.9384 133.4517 99.8194 137.4522 89.9239 137.5990 
        C 76.3673 119.2339 68.7443 138.4316 56.5663 138.8559 
        C 47.0913 134.0869 51.4630 111.6330 58.1398 107.1184 
        C 64.8440 102.5851 77.1948 110.3680 82.0565 106.4899 
        C 86.6716 98.8443 91.2880 91.1964 95.9031 83.5508 
        C 108.0934 66.3694 123.9424 54.3763 147.1982 48.0425 
        C 151.8558 46.7740 158.3475 44.7818 164.8211 45.8428 
        C 221.4373 55.1226 216.9098 87.0704 227.4452 140.1129 
        C 229.8169 152.0534 227.9514 168.8756 229.9628 180.9632 
        C 230.4025 183.6061 230.5949 190.8302 229.3334 192.2756 
        " stroke="transparent" fill="black"/>
        <path d="M198.8080 165.5658 
        C 192.0510 162.5342 186.7079 160.8833 184.6468 153.3107 
        C 181.4339 141.5062 192.4548 130.8482 204.4725 133.1997 
        C 225.1936 137.2543 223.5340 166.2429 198.8080 165.5658 
        " stroke="transparent" fill="black"/>
        <path d="M150.9745 149.2256 
        C 144.2175 146.1941 138.8744 144.5432 136.8133 136.9705 
        C 133.6004 125.1661 144.6213 114.5080 156.6390 116.8596 
        C 177.3601 120.9142 175.7005 149.9028 150.9745 149.2256 
        " stroke="transparent" fill="black"/>
        <path d="M179.2970 126.6008 
        C 199.3038 126.3904 204.1321 106.7886 191.2554 94.8633 
        C 190.5212 94.9680 189.7867 95.0728 189.0525 95.1775 
        C 188.4232 95.8059 187.7937 96.4345 187.1644 97.0629 
        C 186.1271 102.5839 194.2386 104.6962 192.5142 111.8319 
        C 190.9303 118.3860 181.2423 118.0951 177.0941 122.2016 
        C 177.1990 122.9347 177.3040 123.6681 177.4088 124.4012 
        C 178.0382 125.1343 178.6677 125.8677 179.2970 126.6008 
        " stroke="transparent" fill="white"/>
        <path d="M206.6754 94.8633 
        C 207.4096 94.7585 208.1440 94.6538 208.8783 94.5490 
        C 209.6125 93.9206 210.3469 93.2920 211.0811 92.6636 
        C 210.8794 87.8313 206.7359 84.8933 203.8432 82.6081 
        C 190.9362 72.4121 175.9277 72.9096 164.8211 84.8078 
        C 164.9260 85.5409 165.0309 86.2743 165.1358 87.0074 
        C 166.7671 88.3778 166.2911 88.5872 167.6533 89.2071 
        C 172.5163 88.3623 175.3638 83.7914 180.2411 82.2939 
        C 193.8125 78.1270 200.7512 89.0330 206.6754 94.8633 
        " stroke="transparent" fill="white"/>
        <path d="M206.6754 94.8633 
        C 207.4096 94.7585 208.1440 94.6538 208.8783 94.5490 
        C 209.6125 93.9206 210.3469 93.2920 211.0811 92.6636 
        C 210.8794 87.8313 206.7359 84.8933 203.8432 82.6081 
        C 190.9362 72.4121 175.9277 72.9096 164.8211 84.8078 
        C 164.9260 85.5409 165.0309 86.2743 165.1358 87.0074 
        C 166.7671 88.3778 166.2911 88.5872 167.6533 89.2071 
        C 172.5163 88.3623 175.3638 83.7914 180.2411 82.2939 
        C 193.8125 78.1270 200.7512 89.0330 206.6754 94.8633 
        " stroke="transparent" fill="white"/>
    </g>
    </mask>

    <rect fill="hsl(0,0%,6%)" x="0" y="0" width="100%" height="100%" mask="url('#faceMask')"/>
    </g>

</svg>
